<svg version="1.2" xmlns="http://www.w3.org/2000/svg" viewBox="0 0 900 900" width="900" height="900">
	<title>Layer 1</title>
	<style>
		.s0 { fill: #505050 } 
	</style>
	<g id="Layer 1">
		<g id="-e2-">
			<path id="&lt;Path&gt;" class="s0" d="m155.9 136.6c-1.2 0-2.1 1-2.1 2.2 0 1.1 0.9 2.1 2.1 2.1 1.2 0 2.1-1 2.1-2.1 0-1.2-0.9-2.2-2.1-2.2z"/>
			<path id="&lt;Path&gt;" class="s0" d="m167.6 156.7c-2 1-2.6 3.9-1.3 6.3 1.3 2.5 4 3.6 6 2.5 2-1 2.6-3.9 1.3-6.3-1.3-2.5-4-3.6-6-2.5z"/>
			<path id="&lt;Path&gt;" class="s0" d="m144.3 156.7c-2-1.1-4.7 0-6 2.5-1.3 2.4-0.7 5.3 1.4 6.3 2 1.1 4.7 0 6-2.5 1.3-2.4 0.7-5.3-1.4-6.3z"/>
			<path id="&lt;Compound Path&gt;" fill-rule="evenodd" class="s0" d="m142.3 195.7c-30.6 0-55.3-24.7-55.3-55.3 0-30.5 24.7-55.3 55.3-55.3 30.5 0 55.3 24.8 55.3 55.3 0 30.6-24.8 55.3-55.3 55.3zm-12.9-87.1c0-0.3-0.2-0.5-0.5-0.6-2.1-0.7-11.2-3.3-14.7-1.7-3.2 1.4-2.6 31.9-2.6 31.9 0 0-0.6 30.4 2.6 31.8 3.5 1.6 12.6-1 14.7-1.7 0.3-0.1 0.5-0.3 0.5-0.6v-0.9c0-0.3-0.3-0.6-0.7-0.6h-9.7c-0.3 0-0.6-0.3-0.6-0.6 0-0.4 0.3-0.6 0.6-0.6h9.7c0.4 0 0.7-0.3 0.7-0.7v-0.4c0-0.3-0.3-0.6-0.7-0.6h-9.7c-0.3 0-0.6-0.3-0.6-0.6 0-0.3 0.3-0.6 0.6-0.6h9.7c0.4 0 0.7-0.3 0.7-0.7v-0.3c0-0.4-0.3-0.7-0.7-0.7h-9.7c-0.3 0-0.6-0.3-0.6-0.6 0-0.3 0.3-0.6 0.6-0.6h9.7c0.4 0 0.7-0.3 0.7-0.6v-0.4c0-0.4-0.3-0.7-0.7-0.7h-9.7c-0.3 0-0.6-0.2-0.6-0.6 0-0.3 0.3-0.6 0.6-0.6h9.7c0.4 0 0.7-0.3 0.7-0.6v-0.4c0-0.4-0.3-0.6-0.7-0.6h-9.7c-0.3 0-0.6-0.3-0.6-0.6v-0.1c0-0.3 0.3-0.6 0.6-0.6h9.7c0.4 0 0.7-0.2 0.7-0.6v-0.4c0-0.3-0.3-0.6-0.7-0.6h-9.7c-0.3 0-0.6-0.3-0.6-0.6 0-0.4 0.3-0.6 0.6-0.6h9.7c0.4 0 0.7-0.3 0.7-0.7v-0.4c0-0.3-0.3-0.6-0.7-0.6h-9.7c-0.3 0-0.6-0.3-0.6-0.6 0-0.3 0.3-0.6 0.6-0.6h9.7c0.4 0 0.7-0.3 0.7-0.7v-0.3c0-0.4-0.3-0.7-0.7-0.7h-9.7c-0.3 0-0.6-0.3-0.6-0.6 0-0.3 0.3-0.6 0.6-0.6h9.7c0.4 0 0.7-0.3 0.7-0.6v-0.4c0-0.4-0.3-0.7-0.7-0.7h-9.7c-0.3 0-0.6-0.2-0.6-0.6 0-0.3 0.3-0.6 0.6-0.6h9.7c0.4 0 0.7-0.3 0.7-0.6v-0.4c0-0.4-0.3-0.6-0.7-0.6h-9.7c-0.3 0-0.6-0.3-0.6-0.6v-0.1c0-0.3 0.3-0.6 0.6-0.6h9.7c0.4 0 0.7-0.2 0.7-0.6v-0.4c0-0.3-0.3-0.6-0.7-0.6h-9.7c-0.3 0-0.6-0.3-0.6-0.6 0-0.4 0.3-0.6 0.6-0.6h9.7c0.4 0 0.7-0.3 0.7-0.7v-0.4c0-0.3-0.3-0.6-0.7-0.6h-9.7c-0.3 0-0.6-0.3-0.6-0.6 0-0.3 0.3-0.6 0.6-0.6h9.7c0.4 0 0.7-0.3 0.7-0.7v-0.3c0-0.4-0.3-0.7-0.7-0.7h-9.7c-0.3 0-0.6-0.3-0.6-0.6 0-0.3 0.3-0.6 0.6-0.6h9.7c0.4 0 0.7-0.3 0.7-0.6v-0.4c0-0.4-0.3-0.7-0.7-0.7h-9.7c-0.3 0-0.6-0.2-0.6-0.6 0-0.3 0.3-0.6 0.6-0.6h9.7c0.4 0 0.7-0.3 0.7-0.6v-0.4c0-0.4-0.3-0.6-0.7-0.6h-9.7c-0.3 0-0.6-0.3-0.6-0.6v-0.1c0-0.3 0.3-0.6 0.6-0.6h9.7c0.4 0 0.7-0.2 0.7-0.6v-0.4c0-0.3-0.3-0.6-0.7-0.6h-9.7c-0.3 0-0.6-0.3-0.6-0.6 0-0.4 0.3-0.6 0.6-0.6h9.7c0.4 0 0.7-0.3 0.7-0.7v-0.4c0-0.3-0.3-0.6-0.7-0.6h-9.7c-0.3 0-0.6-0.3-0.6-0.6 0-0.4 0.3-0.6 0.6-0.6h9.7c0.4 0 0.7-0.3 0.7-0.7v-0.3c0-0.4-0.3-0.7-0.7-0.7h-9.7c-0.3 0-0.6-0.3-0.6-0.6 0-0.3 0.3-0.6 0.6-0.6h9.7c0.4 0 0.7-0.3 0.7-0.6v-0.4c0-0.4-0.3-0.7-0.7-0.7h-9.7c-0.3 0-0.6-0.2-0.6-0.6 0-0.3 0.3-0.6 0.6-0.6h9.7c0.4 0 0.7-0.3 0.7-0.6v-0.4c0-0.4-0.3-0.7-0.7-0.7h-9.7c-0.3 0-0.6-0.2-0.6-0.5v-0.1c0-0.3 0.3-0.6 0.6-0.6h9.7c0.4 0 0.7-0.2 0.7-0.6zm47.9 62.2c-0.8-0.6-2.1-2.7-2.9-4.2 2-1.9 2.4-5.3 0.8-8.3-1.3-2.4-3.5-3.9-5.8-4.1-2.4-0.2-4.5-1.7-5.6-3.8-0.7-1.3-1.1-2.3-1.1-2.3-0.9-2.5-2.3-6-4-9.9 3.1-8.9 9.2-26.7 9.7-30.2 0 0 0.4-2.1-0.8-1.7 0 0-6.2 13.2-11.6 25.4-5.4-12.2-11.6-25.4-11.6-25.4-1.3-0.4-0.8 1.7-0.8 1.7 0.4 3.5 6.5 21.3 9.6 30.2-1.6 3.9-3 7.4-3.9 9.9 0 0-0.4 1-1.1 2.3-1.2 2.1-3.3 3.6-5.7 3.8-2.2 0.2-4.5 1.7-5.7 4.1-1.9 3.5-1 7.6 1.9 9.1 2.9 1.5 6.7-0.1 8.5-3.6 0.9-1.7 1.2-3.5 0.9-5.1-0.3-1.9 0-3.8 1-5.4 1.9-3 4.8-7.3 6.9-9.3 2.1 2 5 6.3 6.9 9.3 1 1.6 1.3 3.5 1 5.4-0.3 1.6-0.1 3.4 0.8 5.1 1.7 3.3 5.2 4.9 8 3.8 1 1.4 2.4 3.5 2.5 4.5 0 0.1 0.1 0.2 0.2 0.1l1.9-1.1c0.2-0.1 0.1-0.3 0-0.3z"/>
			<path id="&lt;Path&gt;" class="s0" d="m214.9 116.6c0 0-0.7 0.9-1.5 1.9-0.8 0.8-1.6 1.7-1.6 1.7 0 0 1.2 0.1 2.4 0.2 1.2 0.1 2.4 0.2 2.4 0.2 0 0 0.6 1 1.2 2 0.6 1.1 1.1 2.2 1.1 2.2 0 0 0.5-1.1 1-2.2 0.4-1.2 0.9-2.3 0.9-2.3l4.7-0.9-3.7-3.3c0 0 0.1-1.3 0.1-2.5 0.1-1.3 0.1-2.6 0.1-2.6l-3.9 2.8c0 0-1.2-0.5-2.3-0.9-1.1-0.4-2.2-0.9-2.2-0.9z"/>
			<path id="&lt;Path&gt;" class="s0" d="m202.5 95.5c0.2 0.4 0.3 0.6 0.3 0.6 0 0-0.5 1.1-1 2.2-0.6 1-1.1 2.1-1.1 2.1 0 0 1.1-0.3 2.3-0.5 1.2-0.2 2.4-0.4 2.4-0.4 0 0 0.2 0.2 0.5 0.5 0.3 0.3 0.7 0.8 1.1 1.2 0.7 1 1.5 1.9 1.5 1.9 0 0 0.3-1.2 0.5-2.4 0.2-1.2 0.4-2.4 0.4-2.4l4.4-1.9c0 0-0.3-0.2-0.7-0.5-0.4-0.2-0.9-0.5-1.5-0.8-1.1-0.6-2.3-1.2-2.3-1.2 0 0-0.2-1.2-0.5-2.5-0.1-0.6-0.2-1.3-0.3-1.7-0.1-0.5-0.2-0.8-0.2-0.8l-3.1 3.7c0 0-0.3-0.1-0.8-0.2-0.4 0-1-0.1-1.6-0.1-1.3-0.1-2.5-0.2-2.5-0.2 0 0 0.7 1 1.4 2 0.3 0.4 0.5 1 0.8 1.4z"/>
			<path id="&lt;Path&gt;" class="s0" d="m185.2 82.4c-0.1 1.2-0.4 2.4-0.4 2.4 0 0 1-0.6 2-1.2 1.1-0.5 2.1-1.1 2.1-1.1 0 0 1.1 0.6 2.1 1.1 0.5 0.3 1 0.6 1.4 0.8 0.4 0.3 0.7 0.4 0.7 0.4 0 0-0.1-0.3-0.1-0.7-0.1-0.5-0.1-1-0.2-1.6-0.2-1.2-0.4-2.4-0.4-2.4l3.6-3.2c0 0-1.3-0.3-2.5-0.5-1.3-0.3-2.5-0.5-2.5-0.5 0 0-0.2-0.3-0.4-0.7-0.2-0.4-0.6-1-0.9-1.5-0.7-1.1-1.4-2.2-1.4-2.2l-1.8 4.5c0 0-1.1 0.3-2.3 0.5-1.2 0.3-2.3 0.6-2.3 0.6l3.6 3c0 0-0.1 1.2-0.3 2.3z"/>
			<path id="&lt;Path&gt;" class="s0" d="m161.6 70c1.1 0.4 2.2 0.8 2.2 0.8 0 0 0.3 1.2 0.5 2.4 0.2 1.1 0.4 2.3 0.4 2.3 0 0 0.8-0.9 1.6-1.9 0.4-0.4 0.8-0.9 1.1-1.2 0.3-0.3 0.5-0.5 0.5-0.5l4.7 0.9c0 0-0.6-1.1-1.1-2.1-0.6-1.1-1.1-2.2-1.1-2.2l2.3-4.2c0 0-1.3 0.1-2.6 0.3-0.6 0-1.2 0.2-1.7 0.3-0.5 0.1-0.8 0.2-0.8 0.2l-3.9-3.3-0.2 4.8c0 0-1.1 0.6-2.1 1.2-0.5 0.3-1 0.7-1.4 0.9-0.4 0.2-0.6 0.4-0.6 0.4 0 0 0.3 0.1 0.7 0.3 0.4 0.1 1 0.3 1.5 0.6z"/>
			<path id="&lt;Path&gt;" class="s0" d="m141.3 70.5c0.5 1 1 2.1 1 2.1 0 0 0.5-1.1 1-2.1 0.6-1.1 1.1-2.1 1.1-2.1l4.8-0.5c0 0-0.9-0.9-1.7-1.7-0.8-0.9-1.7-1.8-1.7-1.8l1.1-4.7-4.6 2.1-4.6-2.1 1 4.7c0 0-0.8 0.9-1.6 1.8-0.9 0.8-1.7 1.7-1.7 1.7l4.8 0.5c0 0 0.5 1 1.1 2.1z"/>
			<path id="&lt;Path&gt;" class="s0" d="m113.1 70.7c-0.5 1-1.1 2.1-1.1 2.1l4.7-0.9c0 0 0.2 0.2 0.5 0.5 0.3 0.3 0.7 0.8 1.1 1.2 0.8 1 1.5 1.9 1.5 1.9 0 0 0.3-1.2 0.5-2.3 0.2-1.2 0.4-2.4 0.4-2.4 0 0 1.2-0.4 2.3-0.8 0.5-0.3 1.1-0.5 1.5-0.6 0.4-0.2 0.7-0.3 0.7-0.3 0 0-0.3-0.2-0.6-0.4-0.4-0.2-0.9-0.6-1.4-0.9-1.1-0.6-2.1-1.2-2.1-1.2l-0.2-4.8-3.9 3.3c0 0-0.3-0.1-0.8-0.2-0.5-0.1-1.1-0.3-1.7-0.3-1.3-0.2-2.6-0.3-2.6-0.3l2.3 4.2c0 0-0.5 1.1-1.1 2.2z"/>
			<path id="&lt;Path&gt;" class="s0" d="m91.8 82.5c-0.1 0.6-0.2 1.1-0.2 1.6-0.1 0.4-0.1 0.7-0.1 0.7 0 0 0.2-0.1 0.6-0.4 0.4-0.2 1-0.5 1.5-0.8 1-0.5 2.1-1.1 2.1-1.1 0 0 1 0.6 2 1.1 1.1 0.6 2.1 1.2 2.1 1.2 0 0-0.3-1.2-0.4-2.4-0.2-1.1-0.3-2.3-0.3-2.3l3.6-3c0 0-1.1-0.3-2.3-0.6-1.2-0.2-2.4-0.5-2.4-0.5l-1.7-4.5c0 0-0.7 1.1-1.4 2.2-0.3 0.5-0.7 1.1-0.9 1.5-0.3 0.4-0.4 0.7-0.4 0.7 0 0-1.3 0.2-2.5 0.5-1.3 0.2-2.5 0.5-2.5 0.5l3.6 3.2c0 0-0.2 1.2-0.4 2.4z"/>
			<path id="&lt;Path&gt;" class="s0" d="m75.6 100.7c0.2 1.2 0.5 2.4 0.5 2.4 0 0 0.7-0.9 1.5-1.9 0.4-0.4 0.8-0.9 1.1-1.2 0.3-0.3 0.5-0.5 0.5-0.5 0 0 1.2 0.2 2.4 0.4 1.2 0.2 2.3 0.5 2.3 0.5 0 0-0.5-1.1-1.1-2.1-0.5-1.1-1-2.2-1-2.2 0 0 0.1-0.2 0.3-0.6 0.2-0.4 0.5-1 0.8-1.4 0.7-1 1.3-2 1.3-2 0 0-1.2 0.1-2.4 0.2-0.6 0-1.2 0.1-1.7 0.1-0.4 0.1-0.7 0.2-0.7 0.2l-3.1-3.7c0 0-0.1 0.3-0.2 0.8-0.1 0.4-0.2 1.1-0.4 1.7-0.2 1.3-0.4 2.5-0.4 2.5 0 0-1.2 0.6-2.3 1.2-0.6 0.3-1.1 0.6-1.5 0.8-0.5 0.3-0.7 0.5-0.7 0.5l4.3 1.9c0 0 0.3 1.2 0.5 2.4z"/>
			<path id="&lt;Path&gt;" class="s0" d="m63.8 120.3c0 0 0.4 1.1 0.9 2.3 0.4 1.1 1 2.2 1 2.2 0 0 0.5-1.1 1.1-2.2 0.6-1 1.2-2 1.2-2 0 0 1.2-0.1 2.4-0.2 1.2-0.1 2.4-0.2 2.4-0.2 0 0-0.8-0.9-1.6-1.7-0.8-1-1.6-1.9-1.6-1.9l1.4-4.6c0 0-1.1 0.5-2.2 0.9-1.1 0.4-2.3 0.9-2.3 0.9l-3.9-2.8c0 0 0 1.3 0.1 2.6 0 1.2 0.1 2.5 0.1 2.5l-3.7 3.3z"/>
			<path id="&lt;Compound Path&gt;" fill-rule="evenodd" class="s0" d="m64.4 162.4q-1.6-0.7-2.9-2.2-1.3-1.5-2.2-3.9-0.9-2.4-1.3-5.7-0.2-1.8-0.2-3 0.1-1.2 0.4-2 0.4-0.8 1.1-1.2 0.6-0.4 1.7-0.5l13.2-1.6q1-0.2 1.8-0.1 0.7 0 1.3 0.3 0.6 0.3 1 0.8 0.5 0.6 0.9 1.5 0.6 1.1 1.1 2.8 0.4 1.6 0.7 3.6 0.2 2 0 3.5-0.1 1.4-0.6 2.4-0.5 1-1.2 1.5-0.8 0.5-1.6 0.6-0.8 0.1-1.7 0-0.8-0.2-1.7-0.6-0.8-0.4-1.5-1.1-0.8-0.6-1.3-1.6 0.2 3.4-0.7 5-0.8 1.7-3 1.9-1.7 0.3-3.3-0.4zm6.1-16.3l0.6 4.9q0.3 2.4 1.6 3.7 1.2 1.3 3.2 1 1.8-0.2 2.5-1.5 0.8-1.2 0.4-3.8 0-0.6-0.2-1.4-0.2-0.8-0.3-1.3-0.4-0.8-0.6-1.3-0.3-0.5-0.7-0.7-0.3-0.2-0.9-0.2-0.6-0.1-1.4 0zm-6.3 13.1q1 0.3 2.2 0.2 0.8-0.2 1.5-0.5 0.6-0.4 1-1.1 0.4-0.8 0.5-2 0.1-1.2-0.2-2.9l-0.8-6.5-6 0.7q-0.8 0.1-1.3 0.3-0.4 0.2-0.6 0.8-0.2 0.5-0.2 1.4 0 0.9 0.2 2.5 0.3 2.1 0.8 3.6 0.5 1.5 1.2 2.3 0.7 0.9 1.7 1.2z"/>
			<path id="&lt;Compound Path&gt;" fill-rule="evenodd" class="s0" d="m83 182.1l-12.2 5.5q-0.6 0.3-1.1 0.1-0.6-0.3-1-1.1-0.3-0.8-0.1-1.3 0.2-0.6 0.8-0.9l8.2-3.7-4.8-10.5q-2.1 1-3.6 2.1-1.4 1.1-2.3 2.3-0.3 0.5-0.7 0.8-0.3 0.2-0.6 0.4-0.6 0.3-1.2 0-0.7-0.3-1-1.1-0.3-0.5-0.2-1.2 0.2-0.7 0.7-1.4 1-1.1 2.6-2.3 1.5-1.1 3.4-1.9 2.7-1.3 5.5-1.5 2.7-0.3 5 0.3 2.3 0.6 4.1 2 1.8 1.4 2.7 3.4 1.5 3.4 0.5 5.9-1 2.5-4.7 4.1zm-2.3-2.8q3.2-1.5 4-3.3 0.9-1.8-0.1-3.9-0.4-1-1.3-1.7-0.8-0.8-2-1.1-1.3-0.4-2.8-0.4-1.6 0-3.5 0.6l4.6 10.3z"/>
			<path id="&lt;Compound Path&gt;" fill-rule="evenodd" class="s0" d="m97.3 199q-1.1 0.4-2.4 0.4-1.3 0-2.6-0.5-1.4-0.5-2.7-1.5 0.8 1.3 1 2.8 0.3 1.6 0 3.2-0.2 1.6-0.9 3-0.7 1.4-1.7 2.4-0.6 0.4-1.2 0.4-0.6-0.1-1.2-0.8-0.6-0.7-0.5-1.2 0-0.6 0.4-1.1 1.3-1.2 1.9-2.7 0.6-1.5 0.7-3 0.1-1.4-0.3-2.8-0.4-1.3-1.3-2.3l-0.4-0.5q-0.5-0.5-0.9-1-0.5-0.6-0.9-1.2l-6 5.4q-0.5 0.4-1.1 0.3-0.5 0-1.1-0.7-0.6-0.6-0.6-1.2-0.1-0.6 0.4-1l11.5-10.3q0.8-0.7 1.5-1.1 0.6-0.5 1.3-0.5 0.8-0.1 1.6 0.2 0.9 0.3 2 1 0.5 0.3 1.1 0.8 0.6 0.4 1.2 0.9 0.6 0.5 1.1 1 0.6 0.5 1 0.9 2.7 3.1 2.8 5.5 0.2 2.4-1.6 4-0.9 0.8-2.1 1.2zm-0.7-3.5q1.3-1.2 1.3-2.8 0-1.7-1.7-3.5-0.5-0.5-1-1.1-0.6-0.5-1.1-0.8-0.7-0.5-1.3-0.7-0.5-0.3-0.9-0.2-0.5 0-1 0.4-0.5 0.3-1.2 1l-3.9 3.5q0.3 0.5 0.8 1.1 0.5 0.6 1 1.2 2.6 2.9 4.9 3.3 2.2 0.3 4.1-1.4z"/>
			<path id="&lt;Compound Path&gt;" fill-rule="evenodd" class="s0" d="m118.2 204.7q0.5 1 0.4 1.9 0 0.8-0.4 1.6-0.4 0.7-1 1.3-0.6 0.6-1.5 1-0.8 0.5-1.8 0.6-1 0.2-2.1 0.1 2.9 1.8 3.7 3.5 0.8 1.7-0.3 3.6-0.8 1.5-2.3 2.4-1.5 0.9-3.5 1-1.9 0.1-4.4-0.5-2.5-0.7-5.4-2.4-1.5-0.8-2.5-1.6-0.9-0.8-1.4-1.5-0.4-0.8-0.3-1.5 0.1-0.8 0.6-1.7l6.6-11.7q0.5-0.9 0.9-1.4 0.5-0.6 1.1-0.9 0.5-0.3 1.2-0.3 0.8-0.1 1.8 0.1 1.2 0.2 2.8 0.8 1.6 0.6 3.3 1.6 1.8 1 2.9 2 1 1 1.6 2zm-6.4 9.6q-0.4-0.8-1.3-1.6-0.9-0.8-2.5-1.6l-5.6-3.2-3 5.3q-0.4 0.7-0.5 1.2-0.1 0.5 0.2 0.9 0.3 0.5 1 1.1 0.8 0.5 2.2 1.3 1.8 1 3.3 1.5 1.5 0.4 2.6 0.4 1.1-0.1 1.9-0.7 0.9-0.6 1.5-1.6 0.4-0.8 0.5-1.6 0.1-0.7-0.3-1.4zm2.9-9.7q-0.6-1.4-2.9-2.7-0.5-0.3-1.3-0.6-0.7-0.4-1.2-0.5-0.8-0.2-1.4-0.3-0.5-0.1-0.9 0.1-0.4 0.2-0.8 0.6-0.3 0.4-0.8 1.2l-2 3.7 4.3 2.5q2.1 1.1 3.9 0.9 1.8-0.3 2.7-2 0.9-1.6 0.4-2.9z"/>
			<path id="&lt;Path&gt;" class="s0" d="m139 209.3q-0.7-0.5-2-0.9-1.3-0.5-3.3-0.9-0.4 0-0.9-0.1-0.6 0-1.3-0.1-0.6 0-1.3 0-0.7-0.1-1.3 0-1.5 0-2.5 0.3-1 0.2-1.7 0.9-0.7 0.6-1.1 1.7-0.5 1.1-0.8 2.7l-2.2 11.8q-0.2 1-0.1 1.7 0 0.6 0.5 1.1 0.5 0.6 1.6 0.9 1.1 0.4 3.1 0.8 1.5 0.3 2.9 0.4 1.4 0.1 2.6 0.1 1.2 0 2.2-0.2 1-0.1 1.6-0.3 0.7-0.3 1-0.5 0.3-0.3 0.3-0.8 0.2-1-0.8-1.2-0.3-0.1-0.8 0.1-0.7 0.2-1.5 0.4-0.9 0.1-1.8 0.2-1 0-2.2-0.1-1.1 0-2.6-0.3-0.9-0.2-1.4-0.3-0.6-0.2-0.8-0.4-0.2-0.2-0.3-0.6 0-0.3 0.1-0.9l1.2-6.3 7.2 1.3q0.5 0.1 0.8-0.2 0.3-0.2 0.4-0.7 0.1-0.5-0.1-0.9-0.2-0.3-0.7-0.4l-7.2-1.4 0.6-3.1q0.2-1.2 0.4-1.9 0.2-0.7 0.6-1 0.3-0.4 0.8-0.5 0.5-0.2 1.4-0.2 0.2 0 0.5 0 0.4 0 0.8 0 0.4 0 0.7 0.1 0.4 0 0.6 0 1 0.2 1.7 0.4 0.7 0.3 1.1 0.5 0.5 0.3 0.8 0.7 0.4 0.3 0.7 0.7 0.2 0.4 0.6 0.7 0.5 0.2 0.9 0.3 0.7 0.2 1.3-0.2 0.6-0.4 0.8-1.2 0.1-0.6-0.1-1.1-0.3-0.6-1-1.1z"/>
			<path id="&lt;Compound Path&gt;" fill-rule="evenodd" class="s0" d="m162.2 224.8q0.8 1.3 1 2.8 0.1 0.7-0.3 1.1-0.4 0.5-1.3 0.6-0.9 0.1-1.4-0.2-0.4-0.4-0.6-1-0.3-1.8-1.2-3.1-0.9-1.3-2-2.2-1.2-0.9-2.5-1.4-1.4-0.4-2.6-0.2l-0.7 0.1q-0.6 0.1-1.4 0.1-0.7 0-1.4 0l1 8.1q0.1 0.6-0.3 1-0.4 0.5-1.2 0.6-0.9 0.1-1.4-0.2-0.5-0.3-0.6-0.9l-2-15.3q-0.1-1.1-0.1-1.9 0-0.8 0.4-1.4 0.3-0.6 1.1-1.1 0.7-0.6 1.9-1.1 0.5-0.2 1.2-0.5 0.7-0.2 1.5-0.5 0.8-0.2 1.5-0.3 0.7-0.2 1.3-0.3 4-0.5 6.1 0.7 2 1.2 2.4 3.6 0.1 1.2-0.2 2.4-0.3 1.2-1 2.2-0.8 1.1-1.9 1.9-1.2 0.9-2.8 1.4 1.5 0.1 2.9 0.7 1.5 0.7 2.6 1.8 1.2 1.1 2 2.5zm-6.3-7.7q1.5-1.6 1.2-4.1-0.2-1.8-1.6-2.7-1.4-0.9-3.9-0.6-0.7 0.1-1.4 0.3-0.8 0.2-1.3 0.4-0.8 0.3-1.3 0.6-0.5 0.3-0.7 0.7-0.2 0.4-0.2 1 0 0.6 0.1 1.6l0.7 5.2q0.6 0.1 1.4 0 0.8-0.1 1.6-0.2 3.8-0.5 5.4-2.2z"/>
			<path id="&lt;Path&gt;" class="s0" d="m185.2 210.4q-0.5-0.5-1.2-0.8-0.7-0.3-1.6-0.3-1-0.1-2.3 0.1l-7.4 1.2q-1.9 0.3-2.8-0.1-0.8-0.3-1.3-1.2-0.6-1.3 0.1-2.8 0.7-1.5 2.8-2.5 1.8-0.9 3.4-0.9 1.6 0 3.3 0.8 0.4 0.2 1 0.2 0.5 0 1.2-0.3 0.9-0.4 1.2-1.2 0.2-0.7-0.1-1.4-0.4-0.8-1.5-1.1-1-0.4-2.5-0.3-1.4 0.1-3 0.5-1.6 0.4-3 1.1-2.1 1-3.6 2.2-1.4 1.3-2.2 2.6-0.8 1.3-0.8 2.6-0.1 1.3 0.4 2.5 0.9 1.8 2.4 2.5 1.4 0.6 4 0.3l6.9-1.1q1.2-0.1 1.9-0.2 0.7 0 1.2 0.1 0.4 0.1 0.7 0.4 0.2 0.3 0.5 0.8 0.3 0.7 0.2 1.5-0.1 0.9-0.6 1.7-0.5 0.9-1.5 1.8-1.1 0.9-2.6 1.6-1 0.5-2.1 0.6-1.1 0.2-2.1 0-1-0.1-1.8-0.5-0.9-0.5-1.5-1.1-0.9-1.1-1.5-1.3-0.7-0.2-1.4 0.2-0.8 0.3-1 1.1-0.2 0.8 0.2 1.7 0.6 1.3 1.8 2.1 1.2 0.7 2.8 0.9 1.5 0.3 3.5-0.1 1.9-0.4 4-1.4 2.2-1 3.7-2.5 1.5-1.5 2.4-3.1 0.8-1.6 1-3.1 0.1-1.4-0.4-2.5-0.3-0.8-0.8-1.3z"/>
			<path id="&lt;Path&gt;" class="s0" d="m195 185q-0.5-0.5-1.1-0.5-0.6 0.1-1.2 0.7-0.7 0.6-0.7 1.2-0.1 0.6 0.4 1.1l5.4 5.6-8 7.6-5.4-5.6q-0.4-0.5-1-0.4-0.6 0-1.3 0.6-0.6 0.6-0.7 1.2 0 0.6 0.5 1.1l13.5 14.2q0.5 0.4 1.1 0.4 0.6 0 1.3-0.6 0.6-0.6 0.6-1.2 0.1-0.6-0.4-1.1l-6.6-6.9 7.9-7.7 6.7 6.9q0.5 0.5 1.1 0.5 0.6 0 1.2-0.6 0.6-0.6 0.7-1.2 0-0.6-0.4-1.1z"/>
			<path id="&lt;Compound Path&gt;" fill-rule="evenodd" class="s0" d="m221.9 175.7q0.1 2.1-0.3 4.3-0.4 2.1-1.4 4.2-1.1 2.1-2.4 3.5-1.4 1.4-2.9 2.1-1.5 0.7-3.2 0.6-1.7-0.1-3.3-0.9-2.6-1.3-4.4-3.7-1.8-2.4-2.6-5.3-0.8-2.9-0.5-6 0.2-3.1 1.7-6 1-2 2.4-3.4 1.3-1.4 2.9-2.1 1.5-0.7 3.2-0.7 1.7 0 3.2 0.8 1.6 0.8 2.9 2.1 1.3 1.2 2.3 2.9 1 1.6 1.6 3.6 0.6 1.9 0.8 4zm-2.2 2q0.1-2.3-0.6-4.3-0.7-2-2.1-3.6-1.3-1.6-3.1-2.5-1.5-0.7-2.9-0.8-1.4-0.1-2.7 0.4-1.3 0.4-2.3 1.5-1.1 1-1.9 2.4-1 2-1.1 4.2-0.1 2.1 0.6 4.1 0.6 1.9 2.1 3.6 1.4 1.6 3.4 2.7 1.5 0.7 2.9 0.8 1.4 0.2 2.6-0.3 1.2-0.4 2.2-1.4 1-1 1.7-2.4 1.1-2.2 1.2-4.4z"/>
			<path id="&lt;Compound Path&gt;" fill-rule="evenodd" class="s0" d="m229.5 159.1q-0.1 0.9-0.5 1.3-0.5 0.4-1.1 0.3l-15.2-2.3q-1.1-0.1-1.8-0.4-0.8-0.2-1.3-0.7-0.5-0.5-0.8-1.4-0.3-0.8-0.5-2.2 0-0.5-0.1-1.3 0-0.7 0-1.5 0-0.8 0-1.5 0-0.8 0.1-1.3 0.6-4 2.4-5.7 1.7-1.7 4.1-1.3 1.6 0.2 3.1 1.2 1.4 0.9 2.4 2.5 1 1.6 1.4 3.7 0.5 2.1 0.1 4.7-0.1 0.6-0.3 1.4-0.2 0.8-0.5 1.5l7.5 1.1q0.6 0.1 0.9 0.6 0.3 0.5 0.1 1.3zm-10.5-12q-1.4-2-4.1-2.4-1.9-0.3-3.1 0.9-1.2 1.1-1.6 3.5-0.1 0.6-0.1 1.4 0 0.8 0 1.3 0.1 1 0.3 1.5 0.1 0.6 0.4 0.9 0.4 0.3 0.9 0.4 0.6 0.2 1.6 0.3l5.8 0.9q0.2-0.5 0.4-1.3 0.2-0.8 0.3-1.6 0.6-3.8-0.8-5.8z"/>
		</g>
	</g>
</svg>