<svg width="1409" height="1566" viewBox="0 0 1409 1566" fill="none" xmlns="http://www.w3.org/2000/svg">
<g clip-path="url(#clip0_145_2)">
<path d="M1303.12 735.703C1303.12 801.386 1303.31 867.135 1303.05 932.818C1302.78 1000.97 1264.09 1055.79 1200.03 1078.97C1184.78 1084.5 1168.93 1087.03 1152.61 1087.03C1053.92 1086.9 955.227 1086.9 856.534 1086.9C839.819 1086.9 839.753 1086.9 839.753 1104.09C839.753 1214 839.886 1323.85 839.686 1433.77C839.62 1475.4 812.116 1509.71 772.093 1518.77C766.166 1520.1 759.906 1520.43 753.846 1520.43C708.163 1520.57 662.412 1520.63 616.729 1520.5C569.247 1520.3 533.02 1484.6 530.623 1436.03C528.558 1393.53 562.654 1354.16 606.34 1348.3C621.257 1346.3 636.308 1346.57 651.225 1347.17C663.012 1347.7 666.275 1343.37 666.208 1331.85C665.875 1215.4 666.009 1099.02 665.942 982.58C665.942 960.397 671.269 939.946 685.521 922.493C703.434 900.577 726.676 889.718 754.912 889.718C830.563 889.652 906.214 889.718 981.865 889.652C997.714 889.652 997.781 889.585 997.781 873.797C997.781 816.907 997.648 760.084 997.914 703.194C997.981 693.402 996.449 689.605 985.86 694.601C977.203 698.731 967.414 699.464 957.691 699.464C871.252 699.464 784.879 699.531 698.44 699.397C654.155 699.331 619.859 665.956 619.592 623.189C619.393 580.222 653.955 546.315 698.773 546.248C772.493 546.048 846.212 546.048 919.999 546.381C928.789 546.448 935.116 543.717 941.242 537.521C972.941 505.146 1001.71 469.973 1035.27 439.33C1056.65 419.812 1079.16 401.759 1106.73 391.7C1172.06 367.785 1248.64 397.695 1283.6 460.314C1296.19 482.897 1303.12 506.945 1303.12 532.925C1303.05 600.54 1303.12 668.155 1303.12 735.769C1303.05 735.703 1303.05 735.703 1303.12 735.703ZM1251.64 735.503C1251.64 670.952 1251.64 606.402 1251.64 541.918C1251.64 529.194 1250.77 516.671 1246.98 504.347C1230.06 449.455 1160.54 413.017 1105.73 449.456C1090.95 459.315 1076.69 469.707 1064.38 482.43C1032.61 515.272 1000.98 548.246 969.545 581.421C958.29 593.345 945.371 598.408 928.656 598.275C854.537 597.609 780.417 598.008 706.365 598.008C701.77 598.008 697.108 597.809 692.58 598.408C678.994 600.207 670.204 611.731 671.536 625.321C672.934 639.51 683.523 647.637 701.17 647.637C785.612 647.704 870.12 647.57 954.561 647.837C965.283 647.903 973.94 644.573 981.665 637.445C989.856 629.917 998.18 622.523 1006.77 615.395C1015.1 608.467 1024.55 606.402 1034.67 611.398C1044.06 616.061 1048.99 623.855 1049.32 634.38C1049.46 637.845 1049.39 641.309 1049.39 644.773C1049.39 731.573 1049.39 818.373 1049.39 905.24C1049.39 933.551 1041.4 941.545 1013.16 941.545C927.923 941.545 842.683 941.479 757.442 941.612C731.537 941.612 717.885 955.468 717.552 981.581C717.486 985.445 717.552 989.242 717.552 993.106C717.552 1117.21 717.552 1241.25 717.552 1365.35C717.552 1390.4 708.962 1399.26 683.589 1399.59C661.347 1399.93 639.038 1399.39 616.795 1399.86C597.217 1400.26 581.833 1415.72 582.033 1433.97C582.233 1453.55 597.15 1468.61 617.461 1468.74C662.745 1469.01 708.096 1469.01 753.38 1468.74C773.891 1468.61 786.944 1455.42 787.876 1434.83C788.076 1430.24 788.009 1425.64 788.009 1420.98C788.009 1305.33 788.009 1189.76 788.009 1074.11C788.009 1042.4 795.468 1035.07 827.566 1035.07C933.517 1035.07 1039.54 1034.07 1145.49 1035.61C1206.22 1036.47 1253.77 987.843 1252.04 929.088C1250.17 864.604 1251.64 800.054 1251.64 735.503Z" fill="black"/>
<path d="M0 1147.05C0 1020.68 0 894.248 0 767.878C0 765.214 0 762.482 0 759.818C0.199783 737.502 9.32319 728.309 31.5656 728.309C169.016 728.309 306.533 728.309 443.983 728.375C529.224 728.375 614.465 728.175 699.705 728.508C744.523 728.642 778.819 764.348 777.287 808.181C775.822 849.083 741.726 881.525 698.973 881.658C611.401 881.924 523.897 881.724 436.325 881.724C417.679 881.724 417.612 881.724 417.612 900.643C417.612 1108.48 417.679 1316.32 417.679 1524.17C417.679 1528.36 417.812 1532.63 417.612 1536.82C416.813 1555.74 406.757 1565.87 387.778 1565.93C346.689 1566.13 305.601 1566 264.512 1566C187.729 1566 110.879 1566 34.0962 1566C9.1234 1566 0 1556.94 0 1532.09C0.0665942 1403.66 0.0665942 1275.36 0 1147.05ZM51.5439 1146.39C51.5439 1263.9 51.5439 1381.47 51.5439 1498.98C51.5439 1514.31 51.6105 1514.31 66.6608 1514.31C160.692 1514.31 254.789 1514.31 348.82 1514.31C365.935 1514.31 366.002 1514.31 366.002 1497.52C366.002 1286.68 366.002 1075.78 366.002 864.937C366.002 838.091 374.193 829.831 400.964 829.831C497.325 829.831 593.687 829.831 690.049 829.831C694.644 829.831 699.306 830.031 703.834 829.498C716.287 827.966 725.344 817.44 725.477 805.05C725.61 792.326 716.887 782.267 704.1 780.535C700.305 780.002 696.442 780.136 692.58 780.136C484.14 780.069 275.633 780.069 67.1935 780.002C51.5439 780.002 51.4773 780.069 51.4773 796.123C51.5439 912.834 51.5439 1029.61 51.5439 1146.39Z" fill="black"/>
<path d="M1409 780.07C1409 891.851 1409 1003.7 1409 1115.48C1409 1145.59 1401.34 1153.25 1370.64 1153.25C1314.17 1153.32 1257.76 1153.25 1201.29 1153.25C1185.44 1153.25 1185.44 1153.32 1185.44 1169.24C1185.44 1211.47 1185.71 1253.77 1185.24 1296.01C1185.18 1305.47 1187.51 1309.26 1197.7 1310.4C1241.45 1315.19 1284.14 1324.65 1322.49 1347.57C1349 1363.42 1369.98 1384.07 1376.84 1415.78C1377.77 1420.18 1381.03 1422.98 1383.49 1426.37C1394.62 1441.3 1393.62 1461.55 1381.1 1475.07C1368.04 1489.19 1348.87 1491.79 1333.02 1481.53C1316.77 1471.07 1310.71 1451.55 1318.23 1434.04C1325.16 1417.91 1324.03 1412.52 1310.11 1401.33C1291.53 1386.34 1269.82 1377.55 1247.04 1371.48C1230.39 1367.02 1213.35 1364.09 1196.16 1361.89C1187.97 1360.82 1184.98 1363.29 1185.18 1371.55C1185.64 1387.47 1184.38 1402.79 1194.1 1417.78C1203.82 1432.84 1196.83 1452.55 1181.91 1463.55C1167 1474.54 1148.48 1473.47 1134.3 1460.95C1120.91 1449.02 1116.78 1428.57 1127.11 1413.92C1137.7 1398.86 1132.3 1382.81 1133.3 1367.15C1133.57 1362.76 1130.17 1361.36 1126.17 1361.82C1086.22 1366.49 1047.26 1374.28 1013.56 1398.26C1009.83 1400.93 1006.57 1404.26 1003.31 1407.52C996.516 1414.32 993.652 1420.45 1000.44 1430.37C1011.23 1446.03 1006.57 1466.81 991.854 1479.07C977.669 1490.86 957.025 1490.53 943.24 1478.2C928.989 1465.54 925.726 1445.16 936.115 1429.04C939.777 1423.44 942.041 1417.65 943.84 1411.32C954.628 1373.55 983.53 1353.16 1016.49 1337.38C1049.39 1321.65 1084.69 1313.99 1120.78 1310.53C1131.5 1309.53 1133.97 1305.07 1133.9 1295.21C1133.5 1252.57 1133.43 1209.94 1133.97 1167.31C1134.1 1155.98 1130.04 1152.92 1119.25 1152.98C1060.91 1153.38 1002.51 1153.25 944.106 1153.12C937.646 1153.12 930.987 1152.65 924.66 1151.32C912.474 1148.72 904.349 1137.26 905.215 1125.01C906.081 1112.95 914.871 1103.42 927.124 1101.89C932.052 1101.29 937.114 1101.49 942.108 1101.49C1074.96 1101.49 1207.82 1101.49 1340.74 1101.49C1357.32 1101.49 1357.39 1101.49 1357.39 1085.1C1357.39 872.665 1357.39 660.161 1357.39 447.724C1357.39 442.728 1357.19 437.732 1357.59 432.736C1358.85 417.347 1370.51 405.956 1384.36 406.356C1398.61 406.756 1408.8 418.014 1408.87 434.268C1409 509.21 1408.93 584.086 1408.93 659.029C1409 699.398 1409 739.7 1409 780.07Z" fill="black"/>
<path d="M932.985 180.262C932.652 81.6045 1013.56 0.200214 1112.06 0.000367181C1211.55 -0.19948 1292.66 81.2048 1292.73 181.328C1292.79 277.921 1209.68 360.524 1112.72 360.058C1013.7 359.591 933.384 279.186 932.985 180.262ZM1240.12 180.395C1240.05 108.517 1184.18 51.9606 1113.12 51.8273C1042.13 51.6941 984.662 108.85 984.795 179.529C984.928 250.941 1041.53 308.098 1112.26 308.231C1183.51 308.364 1240.18 251.674 1240.12 180.395Z" fill="black"/>
<path d="M370.264 687.341C315.723 687.341 261.249 687.341 206.708 687.341C181.136 687.341 175.276 683.011 165.22 659.362C124.198 562.903 82.9764 466.51 41.8212 370.117C34.3626 352.664 38.4249 338.741 52.9424 332.146C66.461 326.018 80.0463 331.28 86.9721 346.402C99.3586 373.648 111.079 401.227 123.066 428.672C150.769 492.024 178.739 555.175 205.843 618.793C210.97 630.851 217.63 634.981 230.816 634.914C331.04 634.315 431.264 634.581 531.488 634.648C537.615 634.648 543.808 634.781 549.868 635.78C562.654 637.845 571.711 648.237 571.911 660.161C572.177 671.553 563.986 682.544 552.133 685.475C546.272 686.941 539.946 687.274 533.886 687.274C479.345 687.341 424.804 687.341 370.264 687.341Z" fill="black"/>
</g>
<defs>
<clipPath id="clip0_145_2">
<rect width="1409" height="1566" fill="white"/>
</clipPath>
</defs>
</svg>
